<svg xmlns="http://www.w3.org/2000/svg" width="44" height="44" viewBox="-2.6666666666666665 -2.6666666666666665 29.333333333333332 29.333333333333332"><rect x="-2.6666666666666665" y="-2.6666666666666665" width="29.333333333333332" height="29.333333333333332" fill="#E9E9EC"/><g fill="#1D1D1F" opacity="1"><path class="earL" d="M5.2 10.6 4.3 4.4c-.1-.8.6-1.2 1.2-.8l4.9 3.4z"></path><path class="earR" d="M18.8 10.6l.9-6.2c.1-.8-.6-1.2-1.2-.8l-4.9 3.4z"></path><path d="M12 6.4c-4.9 0-8.9 3-8.9 7.2 0 4.1 3.8 6.6 8.9 6.6s8.9-2.5 8.9-6.6c0-4.2-4-7.2-8.9-7.2z"></path></g><ellipse cx="9" cy="13.8" rx="1.3" ry="1.6" fill="#E9E9EC"></ellipse><ellipse cx="15" cy="13.8" rx="1.3" ry="1.6" fill="#E9E9EC"></ellipse><path d="M17 18v-1.3a2 2 0 0 1 4 0V18" fill="none" stroke="#E9E9EC" stroke-width="3.6"></path><rect x="15.2" y="17.8" width="7.6" height="5.6" rx="1.4" fill="#1D1D1F" stroke="#E9E9EC" stroke-width="2.4"></rect><path d="M17 18v-1.3a2 2 0 0 1 4 0V18" fill="none" stroke="#1D1D1F" stroke-width="1.3"></path></svg>